<svg width="64" height="64" viewBox="0 0 64 64" fill="none" xmlns="http://www.w3.org/2000/svg">
<path d="M32 12C32 12 16 20 16 36C16 52 24 58 32 58C40 58 48 52 48 36C48 20 32 12 32 12Z" fill="#F9E79F"/>
<path d="M32 12V24" stroke="#F1C40F" stroke-width="2"/>
<circle cx="32" cy="8" r="6" fill="#F4D03F"/>
<circle cx="24" cy="32" r="2" fill="black"/>
<circle cx="40" cy="32" r="2" fill="black"/>
<path d="M30 40Q32 42 34 40" stroke="black" stroke-width="2" stroke-linecap="round"/>
<ellipse cx="22" cy="44" rx="4" ry="2" fill="#F1948A" fill-opacity="0.5"/>
<ellipse cx="42" cy="44" rx="4" ry="2" fill="#F1948A" fill-opacity="0.5"/>
<path d="M16 24L8 32L16 36" fill="#F9E79F"/>
<path d="M48 24L56 32L48 36" fill="#F9E79F"/>
</svg>
